<svg width="1280" height="738" viewBox="0 0 1280 738" fill="none" xmlns="http://www.w3.org/2000/svg">
<path d="M0 0H1280V638C1280 638 1081 269.5 842 562C603 854.5 0 694 0 694L0 0Z" fill="#8A5FE8"/>
<g clip-path="url(#clip0_227_16)">
<mask id="mask0_227_16" style="mask-type:luminance" maskUnits="userSpaceOnUse" x="0" y="0" width="1281" height="720">
<path d="M1280.9 0H0V720H1280.9V0Z" fill="white"/>
</mask>
<g mask="url(#mask0_227_16)">
<g opacity="0.1">
<path d="M223.126 126.613C234.141 131.93 239.648 134.965 242.66 139.809C248.618 149.41 244.381 158.494 234.786 164.436C230.548 167.062 227.816 168.763 218.694 169.452C218.694 169.452 211.681 168.138 201.484 175.049C190.664 181.184 188.77 188.115 188.77 188.115C184.102 195.994 181.435 197.587 177.218 200.214C167.624 206.176 157.62 205.961 151.661 196.36C148.649 191.495 148.391 185.209 148.52 172.982C148.52 172.982 148.198 148.958 152.199 135.073C155.103 125.041 164.719 119.1 164.719 119.1L167.688 117.249C167.688 117.249 177.691 110.984 187.566 113.094C201.7 116.129 223.148 126.613 223.148 126.613H223.126ZM135.484 121.037C145.509 114.795 145.788 97.0779 136.065 81.4279C126.362 65.7778 110.357 58.1572 100.332 64.3785C90.3072 70.5998 90.0276 88.338 99.7513 103.988C109.475 119.638 125.459 127.259 135.484 121.037ZM135.096 159.291C140.367 151.283 134.537 138.13 122.081 129.907C109.626 121.683 95.2336 121.511 89.9415 129.519C84.6709 137.527 90.5008 150.68 102.957 158.903C115.434 167.127 129.804 167.299 135.096 159.291ZM177.713 94.8176C187.738 88.5748 188.017 70.8581 178.315 55.208C168.613 39.558 152.608 31.9374 142.583 38.1802C132.558 44.423 132.278 62.1397 142.002 77.7898C151.704 93.4399 167.71 101.06 177.734 94.8391L177.713 94.8176ZM205.486 57.7267C195.977 58.9107 189.739 71.8914 191.589 86.7235C193.417 101.556 202.625 112.62 212.133 111.436C221.642 110.252 227.859 97.2717 226.03 82.4396C224.202 67.6076 214.994 56.5427 205.486 57.7267Z" fill="#030304"/>
</g>
<g opacity="0.1">
<path d="M678.378 126.243C689.393 131.561 694.9 134.596 697.912 139.439C703.871 149.04 699.633 158.125 690.038 164.066C685.8 166.693 683.068 168.393 673.947 169.082C673.947 169.082 666.934 167.769 656.737 174.679C645.916 180.814 644.023 187.746 644.023 187.746C639.355 195.625 636.687 197.218 632.471 199.844C622.876 205.807 612.873 205.592 606.914 195.991C603.902 191.126 603.644 184.84 603.773 172.612C603.773 172.612 603.45 148.588 607.451 134.703C610.356 124.672 619.972 118.73 619.972 118.73L622.94 116.879C622.94 116.879 632.944 110.615 642.818 112.724C656.952 115.76 678.4 126.243 678.4 126.243H678.378ZM590.736 120.668C600.761 114.425 601.041 96.7084 591.317 81.0583C581.615 65.4083 565.609 57.7877 555.585 64.009C545.56 70.2303 545.28 87.9685 555.004 103.619C564.727 119.269 580.711 126.889 590.736 120.668ZM590.349 158.921C595.619 150.913 589.79 137.76 577.334 129.537C564.878 121.314 550.486 121.142 545.194 129.15C539.923 137.158 545.753 150.311 558.209 158.534C570.686 166.757 585.057 166.929 590.349 158.921ZM632.965 94.4481C642.99 88.2053 643.27 70.4886 633.568 54.8385C623.866 39.1885 607.86 31.5679 597.835 37.8107C587.81 44.0535 587.531 61.7702 597.254 77.4203C606.957 93.0704 622.962 100.691 632.987 94.4696L632.965 94.4481ZM660.738 57.3572C651.23 58.5412 644.991 71.5219 646.841 86.354C648.67 101.186 657.877 112.251 667.386 111.067C676.894 109.883 683.111 96.9022 681.283 82.0701C679.454 67.2381 670.247 56.1732 660.738 57.3572Z" fill="#030304"/>
</g>
<g opacity="0.1">
<path d="M1133.26 126.243C1144.28 131.561 1149.78 134.596 1152.8 139.439C1158.75 149.04 1154.52 158.125 1144.92 164.066C1140.68 166.693 1137.95 168.393 1128.83 169.082C1128.83 169.082 1121.82 167.769 1111.62 174.679C1100.8 180.814 1098.91 187.746 1098.91 187.746C1094.24 195.625 1091.57 197.218 1087.35 199.844C1077.76 205.807 1067.76 205.592 1061.8 195.991C1058.79 191.126 1058.53 184.84 1058.66 172.612C1058.66 172.612 1058.33 148.588 1062.34 134.703C1065.24 124.672 1074.86 118.73 1074.86 118.73L1077.82 116.879C1077.82 116.879 1087.83 110.615 1097.7 112.724C1111.84 115.76 1133.28 126.243 1133.28 126.243H1133.26ZM1045.62 120.668C1055.65 114.425 1055.92 96.7084 1046.2 81.0583C1036.5 65.4083 1020.49 57.7877 1010.47 64.009C1000.44 70.2303 1000.16 87.9685 1009.89 103.619C1019.59 119.269 1035.6 126.889 1045.62 120.668ZM1045.23 158.921C1050.5 150.913 1044.67 137.76 1032.22 129.537C1019.76 121.314 1005.37 121.142 1000.08 129.15C994.807 137.158 1000.64 150.311 1013.09 158.534C1025.57 166.757 1039.94 166.929 1045.23 158.921ZM1087.85 94.4481C1097.87 88.2053 1098.15 70.4886 1088.45 54.8385C1078.75 39.1885 1062.74 31.5679 1052.72 37.8107C1042.69 44.0535 1042.41 61.7702 1052.14 77.4203C1061.84 93.0704 1077.85 100.691 1087.87 94.4696L1087.85 94.4481ZM1115.62 57.3572C1106.11 58.5412 1099.87 71.5219 1101.73 86.354C1103.55 101.186 1112.76 112.251 1122.27 111.067C1131.78 109.883 1138 96.9022 1136.17 82.0701C1134.34 67.2381 1125.13 56.1732 1115.62 57.3572Z" fill="#030304"/>
</g>
<g opacity="0.1">
<path d="M-3.93681 338.327C7.07765 343.644 12.5849 346.679 15.5966 351.523C21.5556 361.124 17.3176 370.208 7.72302 376.15C3.48503 378.776 0.752945 380.477 -8.36839 381.165C-8.36839 381.165 -15.3815 379.852 -25.5785 386.762C-36.3993 392.898 -38.2924 399.829 -38.2924 399.829C-42.9607 407.708 -45.6282 409.301 -49.8447 411.927C-59.4393 417.89 -69.4427 417.675 -75.4017 408.074C-78.4134 403.209 -78.6716 396.923 -78.5425 384.696C-78.5425 384.696 -78.8652 360.672 -74.8639 346.787C-71.9597 336.755 -62.3435 330.814 -62.3435 330.814L-59.3748 328.963C-59.3748 328.963 -49.3714 322.698 -39.4971 324.808C-25.3634 327.843 -3.9153 338.327 -3.9153 338.327H-3.93681ZM-91.5792 332.751C-81.5543 326.509 -81.2746 308.792 -90.9983 293.142C-100.701 277.492 -116.706 269.871 -126.731 276.092C-136.756 282.314 -137.035 300.052 -127.312 315.702C-117.588 331.352 -101.604 338.973 -91.5792 332.751ZM-91.9664 371.005C-86.6958 362.997 -92.5257 349.844 -104.982 341.62C-117.437 333.397 -131.829 333.225 -137.121 341.233C-142.392 349.241 -136.562 362.394 -124.106 370.617C-111.629 378.841 -97.2585 379.013 -91.9664 371.005ZM-49.3499 306.531C-39.3251 300.289 -39.0454 282.572 -48.7476 266.922C-58.4498 251.272 -74.4551 243.651 -84.48 249.894C-94.5049 256.137 -94.7845 273.854 -85.0608 289.504C-75.3587 305.154 -59.3533 312.774 -49.3284 306.553L-49.3499 306.531ZM-21.5771 269.441C-31.0857 270.625 -37.3244 283.605 -35.4743 298.437C-33.6457 313.269 -24.4383 324.334 -14.9297 323.15C-5.42117 321.966 0.795959 308.986 -1.03261 294.153C-2.86118 279.321 -12.0686 268.257 -21.5771 269.441Z" fill="#030304"/>
</g>
<g opacity="0.1">
<path d="M450.926 338.327C461.94 343.644 467.447 346.679 470.459 351.523C476.418 361.124 472.18 370.208 462.586 376.15C458.348 378.776 455.615 380.477 446.494 381.165C446.494 381.165 439.481 379.852 429.284 386.762C418.463 392.898 416.57 399.829 416.57 399.829C411.902 407.708 409.234 409.301 405.018 411.927C395.423 417.89 385.42 417.675 379.461 408.074C376.449 403.209 376.191 396.923 376.32 384.696C376.32 384.696 375.997 360.672 379.999 346.787C382.903 336.755 392.519 330.814 392.519 330.814L395.488 328.963C395.488 328.963 405.491 322.698 415.365 324.808C429.499 327.843 450.947 338.327 450.947 338.327H450.926ZM363.283 332.751C373.308 326.509 373.588 308.792 363.864 293.142C354.162 277.492 338.157 269.871 328.132 276.092C318.107 282.314 317.827 300.052 327.551 315.702C337.275 331.352 353.259 338.973 363.283 332.751ZM362.896 371.005C368.167 362.997 362.337 349.844 349.881 341.62C337.425 333.397 323.033 333.225 317.741 341.233C312.471 349.241 318.301 362.394 330.756 370.617C343.234 378.841 357.604 379.013 362.896 371.005ZM405.513 306.531C415.538 300.289 415.817 282.572 406.115 266.922C396.413 251.272 380.407 243.651 370.383 249.894C360.358 256.137 360.078 273.854 369.802 289.504C379.504 305.154 395.509 312.774 405.534 306.553L405.513 306.531ZM433.285 269.441C423.777 270.625 417.538 283.605 419.388 298.437C421.217 313.269 430.424 324.334 439.933 323.15C449.441 321.966 455.659 308.986 453.83 294.153C452.001 279.321 442.794 268.257 433.285 269.441Z" fill="#030304"/>
</g>
<g opacity="0.1">
<path d="M905.81 338.327C916.824 343.644 922.331 346.679 925.343 351.523C931.302 361.124 927.064 370.208 917.47 376.15C913.232 378.776 910.5 380.477 901.378 381.165C901.378 381.165 894.365 379.852 884.168 386.762C873.347 392.898 871.454 399.829 871.454 399.829C866.786 407.708 864.118 409.301 859.902 411.927C850.307 417.89 840.304 417.675 834.345 408.074C831.333 403.209 831.075 396.923 831.204 384.696C831.204 384.696 830.881 360.672 834.883 346.787C837.787 336.755 847.403 330.814 847.403 330.814L850.372 328.963C850.372 328.963 860.375 322.698 870.249 324.808C884.383 327.843 905.831 338.327 905.831 338.327H905.81ZM818.167 332.751C828.192 326.509 828.472 308.792 818.748 293.142C809.046 277.492 793.041 269.871 783.016 276.092C772.991 282.314 772.711 300.052 782.435 315.702C792.137 331.352 808.143 338.973 818.167 332.751ZM817.78 371.005C823.051 362.997 817.221 349.844 804.765 341.62C792.309 333.397 777.917 333.225 772.625 341.233C767.355 349.241 773.185 362.394 785.64 370.617C798.118 378.841 812.488 379.013 817.78 371.005ZM860.397 306.531C870.422 300.289 870.701 282.572 860.999 266.922C851.297 251.272 835.291 243.651 825.267 249.894C815.242 256.137 814.962 273.854 824.686 289.504C834.388 305.154 850.393 312.774 860.418 306.553L860.397 306.531ZM888.169 269.441C878.661 270.625 872.422 283.605 874.272 298.437C876.101 313.269 885.308 324.334 894.817 323.15C904.325 321.966 910.543 308.986 908.714 294.153C906.885 279.321 897.678 268.257 888.169 269.441Z" fill="#030304"/>
</g>
<g opacity="0.1">
<path d="M1360.69 338.327C1371.71 343.644 1377.22 346.679 1380.23 351.523C1386.19 361.124 1381.95 370.208 1372.35 376.15C1368.12 378.776 1365.38 380.477 1356.26 381.165C1356.26 381.165 1349.25 379.852 1339.05 386.762C1328.23 392.898 1326.34 399.829 1326.34 399.829C1321.67 407.708 1319 409.301 1314.79 411.927C1305.19 417.89 1295.19 417.675 1289.23 408.074C1286.22 403.209 1285.96 396.923 1286.09 384.696C1286.09 384.696 1285.77 360.672 1289.77 346.787C1292.67 336.755 1302.29 330.814 1302.29 330.814L1305.26 328.963C1305.26 328.963 1315.26 322.698 1325.13 324.808C1339.27 327.843 1360.72 338.327 1360.72 338.327H1360.69ZM1273.05 332.751C1283.08 326.509 1283.36 308.792 1273.63 293.142C1263.93 277.492 1247.92 269.871 1237.9 276.092C1227.87 282.314 1227.6 300.052 1237.32 315.702C1247.02 331.352 1263.03 338.973 1273.05 332.751ZM1272.66 371.005C1277.93 362.997 1272.1 349.844 1259.65 341.62C1247.19 333.397 1232.8 333.225 1227.51 341.233C1222.24 349.241 1228.07 362.394 1240.52 370.617C1253 378.841 1267.37 379.013 1272.66 371.005ZM1315.28 306.531C1325.31 300.289 1325.59 282.572 1315.88 266.922C1306.18 251.272 1290.18 243.651 1280.15 249.894C1270.13 256.137 1269.85 273.854 1279.57 289.504C1289.27 305.154 1305.28 312.774 1315.3 306.553L1315.28 306.531ZM1343.05 269.441C1333.54 270.625 1327.31 283.605 1329.16 298.437C1330.98 313.269 1340.19 324.334 1349.7 323.15C1359.21 321.966 1365.43 308.986 1363.6 294.153C1361.77 279.321 1352.56 268.257 1343.05 269.441Z" fill="#030304"/>
</g>
<g opacity="0.1">
<path d="M223.494 550.41C234.509 555.728 240.016 558.763 243.028 563.606C248.987 573.207 244.749 582.292 235.154 588.233C230.916 590.86 228.184 592.56 219.063 593.249C219.063 593.249 212.05 591.936 201.853 598.846C191.032 604.981 189.139 611.913 189.139 611.913C184.471 619.792 181.803 621.385 177.587 624.011C167.992 629.974 157.989 629.759 152.03 620.158C149.018 615.293 148.76 609.007 148.889 596.779C148.889 596.779 148.566 572.755 152.567 558.87C155.472 548.839 165.088 542.897 165.088 542.897L168.056 541.046C168.056 541.046 178.06 534.782 187.934 536.891C202.068 539.927 223.516 550.41 223.516 550.41H223.494ZM135.852 544.835C145.877 538.592 146.157 520.875 136.433 505.225C126.731 489.575 110.725 481.955 100.701 488.176C90.6756 494.397 90.396 512.135 100.12 527.786C109.843 543.436 125.827 551.056 135.852 544.835ZM135.465 583.088C140.735 575.08 134.906 561.927 122.45 553.704C109.994 545.481 95.602 545.309 90.3099 553.317C85.0393 561.325 90.8692 574.478 103.325 582.701C115.802 590.924 130.173 591.096 135.465 583.088ZM178.081 518.615C188.106 512.372 188.386 494.656 178.684 479.005C168.982 463.355 152.976 455.735 142.951 461.978C132.926 468.221 132.647 485.937 142.37 501.587C152.073 517.237 168.078 524.858 178.103 518.637L178.081 518.615ZM205.854 481.524C196.346 482.708 190.107 495.689 191.957 510.521C193.786 525.353 202.993 536.418 212.502 535.234C222.01 534.05 228.227 521.069 226.399 506.237C224.57 491.405 215.363 480.34 205.854 481.524Z" fill="#030304"/>
</g>
<g opacity="0.1">
<path d="M678.378 550.41C689.393 555.728 694.9 558.763 697.912 563.606C703.871 573.207 699.633 582.292 690.038 588.233C685.8 590.86 683.068 592.56 673.947 593.249C673.947 593.249 666.934 591.936 656.737 598.846C645.916 604.981 644.023 611.913 644.023 611.913C639.355 619.792 636.687 621.385 632.471 624.011C622.876 629.974 612.873 629.759 606.914 620.158C603.902 615.293 603.644 609.007 603.773 596.779C603.773 596.779 603.45 572.755 607.451 558.87C610.356 548.839 619.972 542.897 619.972 542.897L622.94 541.046C622.94 541.046 632.944 534.782 642.818 536.891C656.952 539.927 678.4 550.41 678.4 550.41H678.378ZM590.736 544.835C600.761 538.592 601.041 520.875 591.317 505.225C581.615 489.575 565.609 481.955 555.585 488.176C545.56 494.397 545.28 512.135 555.004 527.786C564.727 543.436 580.711 551.056 590.736 544.835ZM590.349 583.088C595.619 575.08 589.79 561.927 577.334 553.704C564.878 545.481 550.486 545.309 545.194 553.317C539.923 561.325 545.753 574.478 558.209 582.701C570.686 590.924 585.057 591.096 590.349 583.088ZM632.965 518.615C642.99 512.372 643.27 494.656 633.568 479.005C623.866 463.355 607.86 455.735 597.835 461.978C587.81 468.221 587.531 485.937 597.254 501.587C606.957 517.237 622.962 524.858 632.987 518.637L632.965 518.615ZM660.738 481.524C651.23 482.708 644.991 495.689 646.841 510.521C648.67 525.353 657.877 536.418 667.386 535.234C676.894 534.05 683.111 521.069 681.283 506.237C679.454 491.405 670.247 480.34 660.738 481.524Z" fill="#030304"/>
</g>
</g>
</g>
<defs>
<clipPath id="clip0_227_16">
<rect width="1280" height="635" fill="white" transform="translate(0 24)"/>
</clipPath>
</defs>
</svg>
