<svg width="891" height="297" viewBox="0 0 891 297" fill="none" xmlns="http://www.w3.org/2000/svg">
<path d="M720.492 90.5142C538.695 130.947 353.49 130.947 171.693 90.5142C166.049 140.59 160.394 190.68 154.75 240.756C347.773 283.691 544.412 283.691 737.435 240.756C731.791 190.68 726.136 140.59 720.492 90.5142Z" fill="#E95B5C"/>
<circle cx="83.6688" cy="83.6688" r="83.6688" transform="matrix(0.965926 0.258819 0.258819 -0.965926 0.592468 253.295)" fill="#E95B5C"/>
<circle cx="83.6688" cy="83.6688" r="83.6688" transform="matrix(0.965926 0.258819 0.258819 -0.965926 25.1525 161.636)" fill="#E95B5C"/>
<circle cx="788.489" cy="194.527" r="83.6688" transform="rotate(165 788.489 194.527)" fill="#E95B5C"/>
<circle cx="763.928" cy="102.868" r="83.6688" transform="rotate(165 763.928 102.868)" fill="#E95B5C"/>
<path d="M675.5 103.5C679 173 700.5 233.5 753 285.5" stroke="white" stroke-width="10" stroke-linecap="square"/>
<path d="M215.858 103.5C212.358 173 190.858 233.5 138.358 285.5" stroke="white" stroke-width="10" stroke-linecap="square"/>
<path d="M284.217 228.783L277.797 228.004L277.703 225.758C276.873 226.51 275.915 227.051 274.827 227.379C273.74 227.694 272.588 227.778 271.368 227.63C270.004 227.464 268.822 227.057 267.824 226.407C266.828 225.744 266.08 224.916 265.581 223.92C265.083 222.912 264.905 221.814 265.047 220.625C265.198 219.371 265.661 218.309 266.437 217.442C267.212 216.575 268.215 215.945 269.445 215.552C270.69 215.148 272.068 215.038 273.579 215.221C274.4 215.321 275.198 215.506 275.972 215.776C276.748 216.032 277.495 216.367 278.212 216.779L278.25 216.459C278.324 215.844 278.19 215.28 277.848 214.764C277.52 214.25 277.02 213.817 276.35 213.465C275.693 213.114 274.92 212.885 274.032 212.777C273.131 212.668 272.241 212.695 271.361 212.859C270.494 213.025 269.7 213.314 268.978 213.728L267.759 208.074C269.295 207.597 270.798 207.279 272.269 207.119C273.74 206.959 275.132 206.958 276.443 207.117C278.524 207.37 280.277 207.996 281.704 208.995C283.145 209.983 284.195 211.268 284.852 212.852C285.512 214.421 285.721 216.208 285.482 218.21L284.217 228.783ZM273.702 222.448C274.299 222.521 274.898 222.458 275.499 222.26C276.114 222.064 276.632 221.781 277.053 221.412C277.473 221.044 277.709 220.646 277.76 220.218L277.763 220.198C277.319 219.86 276.815 219.582 276.249 219.365C275.685 219.134 275.112 218.983 274.529 218.912C273.694 218.811 273.012 218.89 272.483 219.151C271.97 219.4 271.68 219.799 271.615 220.346C271.573 220.693 271.635 221.019 271.8 221.323C271.965 221.628 272.211 221.881 272.536 222.083C272.876 222.273 273.265 222.395 273.702 222.448Z" fill="white"/>
<path d="M299.588 230.429L293.154 229.784L296.128 199.678L303.48 200.415L302.29 212.457C303.149 211.773 304.097 211.274 305.134 210.959C306.172 210.631 307.276 210.525 308.445 210.642C310.185 210.817 311.68 211.426 312.932 212.471C314.185 213.502 315.118 214.845 315.733 216.501C316.348 218.144 316.557 219.969 316.359 221.976C316.16 223.983 315.598 225.737 314.672 227.239C313.747 228.727 312.568 229.859 311.137 230.634C309.707 231.396 308.122 231.69 306.382 231.516C305.081 231.385 303.898 231.003 302.834 230.369C301.784 229.724 300.907 228.892 300.203 227.876L299.588 230.429ZM304.785 224.667C305.503 224.739 306.149 224.641 306.726 224.375C307.316 224.096 307.793 223.685 308.155 223.14C308.532 222.583 308.758 221.93 308.832 221.181C308.903 220.458 308.807 219.8 308.544 219.206C308.295 218.6 307.908 218.108 307.382 217.731C306.871 217.342 306.256 217.112 305.539 217.04C304.875 216.973 304.256 217.06 303.682 217.3C303.122 217.541 302.651 217.899 302.268 218.374C301.899 218.85 301.655 219.42 301.536 220.084L301.463 220.827C301.448 221.515 301.575 222.135 301.842 222.689C302.123 223.244 302.514 223.696 303.016 224.043C303.532 224.392 304.121 224.6 304.785 224.667Z" fill="white"/>
<path d="M334.216 233.979C332.114 233.814 330.273 233.217 328.692 232.188C327.127 231.148 325.932 229.806 325.109 228.163C324.301 226.508 323.975 224.675 324.131 222.664C324.287 220.653 324.892 218.9 325.945 217.405C327.013 215.898 328.4 214.759 330.107 213.99C331.827 213.209 333.739 212.901 335.841 213.067C337.931 213.232 339.751 213.834 341.304 214.873C342.871 215.901 344.059 217.242 344.867 218.897C345.677 220.539 346.003 222.366 345.847 224.376C345.691 226.387 345.085 228.147 344.031 229.655C342.978 231.15 341.597 232.289 339.89 233.071C338.197 233.842 336.305 234.144 334.216 233.979ZM334.692 227.341C335.331 227.391 335.909 227.275 336.426 226.992C336.958 226.697 337.386 226.272 337.71 225.717C338.049 225.151 338.247 224.492 338.305 223.741C338.362 223.017 338.265 222.362 338.016 221.776C337.782 221.178 337.424 220.698 336.943 220.336C336.477 219.962 335.925 219.75 335.286 219.699C334.647 219.649 334.062 219.772 333.53 220.067C333.013 220.35 332.585 220.768 332.248 221.321C331.925 221.862 331.735 222.495 331.679 223.219C331.62 223.969 331.708 224.651 331.942 225.262C332.19 225.862 332.547 226.349 333.013 226.723C333.494 227.084 334.053 227.29 334.692 227.341Z" fill="white"/>
<path d="M373.739 236.17L367.903 235.832L367.845 232.616C367.085 233.757 366.114 234.603 364.933 235.155C363.753 235.692 362.396 235.917 360.864 235.828C358.385 235.684 356.491 234.794 355.181 233.155C353.871 231.517 353.294 229.322 353.451 226.57L354.121 214.83L361.496 215.257L360.942 224.963C360.866 226.306 361.06 227.354 361.525 228.108C362.003 228.863 362.716 229.268 363.662 229.323C364.634 229.379 365.408 229.06 365.982 228.366C366.557 227.659 366.883 226.641 366.959 225.312L367.513 215.606L374.888 216.033L373.739 236.17Z" fill="white"/>
<path d="M399.123 236.656C397.418 237.236 395.785 237.495 394.225 237.434C392.531 237.368 391.051 236.954 389.784 236.191C388.518 235.429 387.542 234.401 386.857 233.11C386.186 231.805 385.882 230.32 385.946 228.654L386.157 223.172L382.656 223.035L382.911 216.404L386.812 216.556L387.005 211.518L393.987 211.79L393.794 216.829L399.055 217.034L398.801 223.665L393.539 223.46L393.38 227.591C393.341 228.626 393.597 229.423 394.15 229.983C394.703 230.529 395.367 230.818 396.14 230.848C396.927 230.878 397.697 230.653 398.451 230.171L399.123 236.656Z" fill="white"/>
<path d="M434.264 248L426.456 247.933L430.665 237.945L420.368 217.624L428.776 217.697L434.221 229.524L439.166 217.787L446.974 217.855L434.264 248Z" fill="white"/>
<path d="M465.103 238.235C462.994 238.263 461.106 237.838 459.439 236.959C457.786 236.067 456.475 234.841 455.506 233.28C454.551 231.706 454.06 229.911 454.034 227.894C454.007 225.877 454.451 224.076 455.364 222.49C456.291 220.891 457.569 219.63 459.199 218.707C460.842 217.771 462.717 217.289 464.826 217.26C466.921 217.232 468.789 217.665 470.429 218.557C472.083 219.436 473.387 220.662 474.342 222.236C475.297 223.797 475.788 225.586 475.815 227.603C475.841 229.619 475.398 231.427 474.484 233.026C473.571 234.612 472.299 235.873 470.67 236.809C469.054 237.732 467.198 238.207 465.103 238.235ZM464.975 231.58C465.615 231.572 466.18 231.403 466.67 231.073C467.173 230.73 467.56 230.268 467.833 229.686C468.119 229.091 468.257 228.416 468.247 227.663C468.237 226.937 468.082 226.294 467.781 225.733C467.493 225.159 467.093 224.714 466.582 224.398C466.084 224.068 465.514 223.908 464.874 223.916C464.233 223.925 463.661 224.101 463.159 224.444C462.669 224.773 462.281 225.229 461.995 225.811C461.723 226.379 461.591 227.026 461.601 227.752C461.61 228.505 461.759 229.176 462.048 229.764C462.349 230.338 462.748 230.79 463.247 231.119C463.758 231.435 464.334 231.589 464.975 231.58Z" fill="white"/>
<path d="M504.659 236.782L498.816 236.982L498.468 233.785C497.814 234.991 496.924 235.923 495.798 236.58C494.671 237.225 493.34 237.573 491.806 237.625C489.325 237.71 487.358 236.997 485.905 235.486C484.451 233.976 483.678 231.843 483.585 229.088L483.189 217.335L490.572 217.083L490.9 226.799C490.945 228.143 491.234 229.169 491.765 229.877C492.31 230.585 493.056 230.923 494.003 230.89C494.977 230.857 495.718 230.468 496.227 229.724C496.736 228.967 496.968 227.923 496.923 226.593L496.595 216.876L503.978 216.623L504.659 236.782Z" fill="white"/>
<path d="M521.833 235.931L514.456 236.323L513.4 216.181L519.798 215.841L520.204 218.99C520.811 217.827 521.632 216.908 522.666 216.234C523.699 215.546 524.902 215.166 526.275 215.093C526.741 215.068 527.217 215.083 527.701 215.138C528.184 215.18 528.676 215.261 529.177 215.383L528.608 222.119C527.618 221.848 526.703 221.735 525.863 221.78C524.89 221.831 524.055 222.085 523.357 222.539C522.672 222.98 522.155 223.579 521.807 224.338C521.459 225.097 521.312 225.987 521.366 227.008L521.833 235.931Z" fill="white"/>
<path d="M560.663 243.441L553.28 244.052L550.819 213.899L557.264 213.365L557.857 215.947C558.577 214.93 559.468 214.114 560.529 213.5C561.603 212.871 562.792 212.503 564.095 212.395C565.838 212.251 567.418 212.578 568.836 213.378C570.253 214.165 571.412 215.317 572.312 216.835C573.212 218.339 573.743 220.096 573.907 222.106C574.072 224.116 573.832 225.944 573.19 227.589C572.546 229.221 571.59 230.548 570.321 231.571C569.05 232.58 567.544 233.157 565.801 233.301C564.631 233.398 563.53 233.28 562.498 232.947C561.465 232.601 560.526 232.078 559.678 231.38L560.663 243.441ZM563.005 226.854C563.724 226.795 564.342 226.581 564.862 226.215C565.393 225.833 565.788 225.342 566.047 224.74C566.319 224.138 566.425 223.468 566.365 222.731C566.305 221.994 566.092 221.35 565.725 220.8C565.372 220.249 564.903 219.836 564.319 219.561C563.746 219.271 563.1 219.156 562.382 219.215C561.717 219.27 561.124 219.468 560.602 219.808C560.094 220.147 559.695 220.591 559.405 221.142C559.129 221.691 558.992 222.309 558.994 222.997L559.055 223.741C559.162 224.393 559.396 224.967 559.758 225.464C560.132 225.945 560.597 226.311 561.153 226.562C561.723 226.812 562.34 226.909 563.005 226.854Z" fill="white"/>
<path d="M602.404 227.219C600.093 229.15 597.484 230.266 594.576 230.57C592.333 230.804 590.267 230.546 588.378 229.796C586.502 229.032 584.955 227.889 583.739 226.367C582.535 224.843 581.829 223.064 581.621 221.031C581.423 219.105 581.711 217.338 582.485 215.73C583.258 214.108 584.395 212.773 585.898 211.724C587.414 210.674 589.18 210.044 591.198 209.833C593.309 209.613 595.211 209.908 596.905 210.719C598.598 211.529 599.979 212.757 601.047 214.403C602.115 216.049 602.768 218.022 603.004 220.323L603.07 220.965L589.727 222.356C590.02 222.853 590.401 223.293 590.869 223.677C591.337 224.047 591.902 224.326 592.566 224.514C593.229 224.701 593.985 224.751 594.835 224.662C596.707 224.467 598.418 223.68 599.967 222.302L602.404 227.219ZM589.08 219.382L596.03 218.657C595.899 218.035 595.649 217.5 595.281 217.052C594.926 216.603 594.476 216.271 593.931 216.057C593.398 215.829 592.819 215.748 592.195 215.813C591.558 215.879 591.015 216.084 590.568 216.428C590.12 216.772 589.768 217.201 589.512 217.714C589.27 218.226 589.125 218.782 589.08 219.382Z" fill="white"/>
<path d="M628 225.706C626.408 226.552 624.837 227.07 623.287 227.261C621.605 227.468 620.078 227.297 618.707 226.747C617.336 226.198 616.211 225.341 615.33 224.176C614.461 222.996 613.926 221.578 613.725 219.923L613.065 214.477L609.588 214.905L608.789 208.318L612.665 207.842L612.058 202.836L618.994 201.983L619.6 206.989L624.827 206.346L625.625 212.933L620.399 213.575L620.896 217.68C621.02 218.708 621.4 219.453 622.034 219.917C622.667 220.368 623.368 220.546 624.136 220.451C624.918 220.355 625.642 220.008 626.31 219.412L628 225.706Z" fill="white"/>
<path d="M297.793 167.856L302.186 162.235C303.067 163.109 303.897 163.835 304.677 164.414C305.471 164.993 306.252 165.443 307.022 165.763C307.806 166.07 308.616 166.273 309.451 166.37C310.273 166.466 310.986 166.454 311.591 166.335C312.198 166.203 312.674 165.974 313.02 165.649C313.381 165.312 313.591 164.889 313.649 164.382C313.723 163.741 313.56 163.167 313.162 162.66C312.763 162.153 312.206 161.676 311.492 161.227C310.791 160.78 310.017 160.324 309.17 159.86C308.259 159.362 307.334 158.821 306.393 158.238C305.454 157.641 304.606 156.954 303.848 156.175C303.091 155.397 302.51 154.49 302.105 153.455C301.701 152.406 301.58 151.174 301.743 149.758C301.957 147.888 302.604 146.345 303.684 145.131C304.779 143.905 306.174 143.039 307.872 142.532C309.584 142.014 311.467 141.875 313.523 142.114C315.021 142.288 316.582 142.673 318.207 143.268C319.832 143.863 321.45 144.688 323.062 145.742L319.269 151.757C318.382 151.058 317.388 150.469 316.287 149.989C315.202 149.497 314.188 149.196 313.247 149.087C312.597 149.011 312.017 149.031 311.507 149.148C311.009 149.266 310.609 149.477 310.306 149.78C310.004 150.069 309.827 150.435 309.777 150.876C309.709 151.463 309.875 152.01 310.274 152.517C310.674 153.01 311.224 153.487 311.924 153.948C312.623 154.408 313.388 154.883 314.219 155.372C315.126 155.897 316.048 156.472 316.984 157.095C317.934 157.72 318.786 158.428 319.542 159.22C320.311 160.013 320.898 160.928 321.303 161.963C321.71 162.985 321.836 164.17 321.681 165.52C321.474 167.323 320.801 168.855 319.663 170.117C318.538 171.367 317.058 172.271 315.22 172.828C313.396 173.387 311.33 173.533 309.023 173.264C306.875 173.014 304.847 172.426 302.937 171.5C301.028 170.574 299.313 169.359 297.793 167.856Z" fill="white"/>
<path d="M329.708 174.929L332.383 144.794L339.741 145.457L338.678 157.431C340.212 156.003 342.162 155.396 344.528 155.609C346.948 155.827 348.767 156.774 349.985 158.449C351.217 160.113 351.711 162.324 351.466 165.083L350.426 176.796L343.068 176.132L343.928 166.449C344.047 165.11 343.879 164.055 343.425 163.285C342.984 162.517 342.291 162.09 341.348 162.005C340.377 161.917 339.593 162.218 338.996 162.907C338.4 163.582 338.043 164.583 337.926 165.908L337.066 175.592L329.708 174.929Z" fill="white"/>
<path d="M378.554 178.728L372.101 178.306L371.884 176.068C371.097 176.866 370.169 177.459 369.101 177.847C368.033 178.222 366.887 178.369 365.662 178.289C364.29 178.2 363.088 177.858 362.056 177.265C361.025 176.659 360.233 175.873 359.68 174.907C359.128 173.928 358.89 172.841 358.967 171.647C359.048 170.385 359.453 169.3 360.18 168.391C360.907 167.482 361.874 166.797 363.081 166.337C364.302 165.864 365.671 165.677 367.19 165.777C368.016 165.831 368.822 165.971 369.61 166.198C370.399 166.411 371.163 166.703 371.901 167.075L371.922 166.753C371.962 166.136 371.797 165.579 371.428 165.084C371.072 164.589 370.549 164.184 369.861 163.869C369.185 163.556 368.401 163.37 367.509 163.311C366.603 163.252 365.716 163.329 364.846 163.542C363.99 163.755 363.212 164.088 362.514 164.541L360.988 158.964C362.495 158.402 363.979 158.001 365.439 157.759C366.899 157.518 368.288 157.44 369.607 157.526C371.698 157.663 373.483 158.191 374.962 159.109C376.455 160.015 377.574 161.241 378.317 162.785C379.061 164.316 379.368 166.088 379.238 168.1L378.554 178.728ZM367.709 172.986C368.308 173.025 368.903 172.929 369.493 172.698C370.096 172.468 370.597 172.157 370.997 171.766C371.397 171.374 371.611 170.964 371.638 170.534L371.64 170.514C371.178 170.201 370.659 169.952 370.083 169.766C369.507 169.566 368.926 169.448 368.34 169.409C367.501 169.354 366.825 169.472 366.311 169.762C365.812 170.039 365.544 170.453 365.509 171.003C365.487 171.352 365.566 171.674 365.748 171.968C365.929 172.263 366.188 172.503 366.524 172.686C366.874 172.857 367.269 172.957 367.709 172.986Z" fill="white"/>
<path d="M394.691 179.492L387.31 179.17L388.174 159.02L394.575 159.298L394.679 162.472C395.395 161.373 396.299 160.537 397.392 159.966C398.486 159.381 399.72 159.118 401.093 159.178C401.56 159.199 402.031 159.259 402.508 159.361C402.985 159.449 403.467 159.578 403.954 159.747L402.747 166.397C401.788 166.032 400.888 165.832 400.048 165.795C399.074 165.753 398.219 165.924 397.481 166.309C396.757 166.681 396.185 167.228 395.767 167.95C395.349 168.672 395.117 169.544 395.074 170.565L394.691 179.492Z" fill="white"/>
<path d="M429.719 178.397C427.189 180.025 424.462 180.807 421.54 180.745C419.285 180.697 417.266 180.183 415.485 179.204C413.716 178.211 412.322 176.884 411.303 175.221C410.296 173.559 409.814 171.706 409.857 169.663C409.898 167.727 410.401 166.009 411.367 164.51C412.333 162.997 413.626 161.815 415.246 160.961C416.88 160.108 418.71 159.704 420.739 159.747C422.86 159.792 424.712 160.322 426.292 161.338C427.873 162.353 429.092 163.744 429.95 165.511C430.807 167.278 431.211 169.317 431.163 171.629L431.149 172.275L417.739 171.989C417.968 172.519 418.291 173.003 418.709 173.442C419.128 173.868 419.654 174.216 420.289 174.485C420.925 174.754 421.669 174.897 422.523 174.915C424.405 174.956 426.199 174.389 427.906 173.214L429.719 178.397ZM417.462 168.957L424.447 169.106C424.394 168.473 424.212 167.911 423.902 167.42C423.605 166.929 423.199 166.544 422.685 166.264C422.184 165.971 421.619 165.818 420.992 165.804C420.352 165.791 419.788 165.927 419.301 166.212C418.815 166.498 418.413 166.879 418.096 167.357C417.792 167.834 417.581 168.368 417.462 168.957Z" fill="white"/>
<path d="M487.172 179.953L479.786 180.111L479.583 170.391C479.554 169.047 479.299 168.016 478.817 167.3C478.335 166.584 477.66 166.236 476.792 166.254C475.898 166.273 475.212 166.658 474.734 167.407C474.269 168.144 474.05 169.177 474.078 170.508L474.282 180.228L466.896 180.385L466.692 170.665C466.664 169.321 466.409 168.291 465.926 167.575C465.444 166.859 464.769 166.51 463.902 166.528C463.008 166.547 462.322 166.932 461.843 167.682C461.378 168.418 461.16 169.452 461.188 170.782L461.391 180.502L454.005 180.659L453.582 160.494L459.427 160.37L459.733 163.51C460.39 162.34 461.259 161.44 462.34 160.812C463.435 160.183 464.71 159.854 466.164 159.823C467.632 159.792 468.919 160.06 470.026 160.628C471.133 161.196 472.018 162.032 472.682 163.134C473.352 161.99 474.222 161.117 475.29 160.516C476.359 159.902 477.614 159.579 479.055 159.548C481.47 159.497 483.368 160.237 484.748 161.767C486.142 163.284 486.868 165.428 486.926 168.197L487.172 179.953Z" fill="white"/>
<path d="M515.085 176.418C512.677 178.225 510.014 179.204 507.095 179.355C504.842 179.471 502.792 179.106 500.945 178.258C499.11 177.397 497.625 176.175 496.488 174.591C495.365 173.006 494.752 171.193 494.648 169.152C494.55 167.218 494.929 165.468 495.784 163.903C496.64 162.324 497.845 161.05 499.399 160.081C500.967 159.111 502.764 158.574 504.79 158.47C506.909 158.36 508.794 158.755 510.443 159.652C512.093 160.55 513.408 161.849 514.39 163.549C515.372 165.248 515.922 167.253 516.039 169.563L516.072 170.207L502.675 170.899C502.942 171.41 503.299 171.869 503.748 172.277C504.196 172.671 504.746 172.98 505.399 173.202C506.051 173.424 506.804 173.513 507.657 173.469C509.537 173.372 511.286 172.676 512.904 171.381L515.085 176.418ZM502.182 167.895L509.16 167.534C509.061 166.907 508.84 166.359 508.495 165.893C508.164 165.425 507.732 165.07 507.198 164.828C506.677 164.573 506.104 164.461 505.477 164.493C504.837 164.526 504.285 164.703 503.82 165.023C503.355 165.343 502.982 165.753 502.7 166.252C502.431 166.751 502.259 167.298 502.182 167.895Z" fill="white"/>
<path d="M546.308 176.272L539.861 176.77L539.282 174.185C538.555 175.185 537.653 175.997 536.576 176.619C535.512 177.241 534.328 177.602 533.024 177.703C531.294 177.836 529.716 177.506 528.29 176.713C526.877 175.905 525.725 174.747 524.833 173.238C523.941 171.715 523.418 169.949 523.265 167.937C523.112 165.926 523.362 164.107 524.014 162.478C524.666 160.837 525.63 159.515 526.905 158.513C528.193 157.496 529.702 156.921 531.432 156.787C532.604 156.697 533.711 156.827 534.755 157.178C535.798 157.516 536.735 158.037 537.565 158.741L536.646 146.675L544.013 146.106L546.308 176.272ZM534.795 170.89C535.474 170.838 536.075 170.643 536.598 170.306C537.134 169.968 537.549 169.525 537.842 168.976C538.135 168.427 538.255 167.811 538.203 167.127L538.146 166.383C538.095 165.713 537.884 165.136 537.513 164.652C537.141 164.168 536.665 163.801 536.083 163.549C535.515 163.296 534.892 163.196 534.213 163.248C533.508 163.303 532.889 163.519 532.355 163.898C531.821 164.262 531.416 164.746 531.14 165.347C530.865 165.948 530.755 166.617 530.811 167.355C530.867 168.092 531.077 168.737 531.44 169.288C531.803 169.84 532.277 170.262 532.862 170.554C533.445 170.833 534.09 170.945 534.795 170.89Z" fill="white"/>
<path d="M557.359 151.145C556.469 151.232 555.688 150.991 555.016 150.422C554.344 149.853 553.965 149.12 553.878 148.224C553.791 147.327 554.023 146.534 554.573 145.845C555.123 145.156 555.843 144.768 556.733 144.68C557.637 144.592 558.424 144.832 559.096 145.401C559.782 145.969 560.168 146.701 560.254 147.597C560.341 148.494 560.103 149.288 559.539 149.978C558.989 150.667 558.262 151.056 557.359 151.145ZM563.353 174.631L556 175.353L554.058 155.279L561.41 154.556L563.353 174.631Z" fill="white"/>
<path d="M592.587 171.344L586.164 172.101L585.55 169.94C584.919 170.867 584.113 171.618 583.131 172.194C582.148 172.757 581.047 173.11 579.828 173.254C578.462 173.415 577.219 173.297 576.098 172.901C574.975 172.492 574.056 171.863 573.339 171.013C572.62 170.15 572.192 169.124 572.054 167.935C571.909 166.68 572.112 165.539 572.665 164.513C573.218 163.486 574.046 162.637 575.151 161.966C576.267 161.279 577.581 160.847 579.092 160.669C579.914 160.572 580.733 160.563 581.548 160.643C582.362 160.71 583.166 160.859 583.959 161.09L583.921 160.77C583.85 160.155 583.589 159.638 583.137 159.217C582.698 158.795 582.112 158.492 581.378 158.308C580.658 158.122 579.853 158.081 578.965 158.186C578.064 158.292 577.204 158.529 576.387 158.896C575.583 159.261 574.878 159.73 574.272 160.302L571.773 155.094C573.155 154.267 574.543 153.603 575.936 153.1C577.329 152.598 578.681 152.269 579.994 152.115C582.075 151.869 583.925 152.064 585.544 152.699C587.175 153.319 588.494 154.322 589.502 155.706C590.507 157.076 591.127 158.763 591.359 160.767L592.587 171.344ZM580.892 167.666C581.489 167.595 582.057 167.393 582.596 167.059C583.148 166.723 583.586 166.326 583.909 165.868C584.232 165.411 584.369 164.968 584.319 164.541L584.317 164.521C583.807 164.296 583.252 164.145 582.651 164.067C582.049 163.976 581.457 163.964 580.874 164.033C580.038 164.131 579.394 164.37 578.941 164.748C578.499 165.111 578.31 165.567 578.374 166.114C578.414 166.462 578.55 166.764 578.781 167.021C579.013 167.278 579.31 167.466 579.673 167.586C580.048 167.691 580.455 167.717 580.892 167.666Z" fill="white"/>
</svg>
