<svg width="127" height="127" viewBox="0 0 127 127" fill="none" xmlns="http://www.w3.org/2000/svg">
<circle cx="64" cy="64" r="58.5" stroke="#5BE9B6" stroke-width="5" stroke-dasharray="20 20"/>
<ellipse cx="61.5" cy="63" rx="33.5" ry="40" fill="white"/>
<path d="M53.5495 47.1044C54.5338 46.4503 55.7466 45.8598 57.15 45.4089V56.1912C55.8782 55.7926 54.6669 55.2222 53.5495 54.4958C51.2445 52.9591 50.8 51.524 50.8 50.8001C50.8 50.0762 51.2445 48.6411 53.5495 47.1044ZM69.85 81.5912V70.8089C71.247 71.2598 72.4662 71.8503 73.4504 72.5044C75.7618 74.0474 76.2 75.4762 76.2 76.2001C76.2 76.924 75.7555 78.3591 73.4504 79.8958C72.3331 80.6222 71.1217 81.1926 69.85 81.5912Z" fill="#5BE9B6"/>
<path fill-rule="evenodd" clip-rule="evenodd" d="M63.5 114.3C76.973 114.3 89.8942 108.948 99.421 99.421C108.948 89.8941 114.3 76.9729 114.3 63.5C114.3 50.027 108.948 37.1058 99.421 27.5789C89.8942 18.0521 76.973 12.7 63.5 12.7C50.027 12.7 37.1058 18.0521 27.579 27.5789C18.0521 37.1058 12.7 50.027 12.7 63.5C12.7 76.9729 18.0521 89.8941 27.579 99.421C37.1058 108.948 50.027 114.3 63.5 114.3ZM69.85 31.75C69.85 30.0658 69.181 28.4507 67.9901 27.2598C66.7993 26.069 65.1841 25.4 63.5 25.4C61.8159 25.4 60.2007 26.069 59.0099 27.2598C57.819 28.4507 57.15 30.0658 57.15 31.75V32.3342C53.357 33.0094 49.738 34.4388 46.5074 36.5379C41.9227 39.5859 38.1 44.5071 38.1 50.7999C38.1 57.0864 41.9227 62.0077 46.5074 65.0621C49.5554 67.0941 53.2003 68.5228 57.15 69.2658V81.5911C54.6672 80.7847 52.832 79.5782 51.797 78.3907C51.2598 77.7315 50.5956 77.1869 49.844 76.7892C49.0923 76.3916 48.2685 76.1489 47.4213 76.0757C46.574 76.0025 45.7208 76.1002 44.912 76.363C44.1033 76.6258 43.3556 77.0483 42.7132 77.6056C42.0709 78.1628 41.547 78.8434 41.1727 79.607C40.7984 80.3705 40.5813 81.2015 40.5342 82.0506C40.4871 82.8996 40.6111 83.7495 40.8987 84.5498C41.1863 85.35 41.6317 86.0843 42.2085 86.7092C45.7772 90.8303 51.181 93.5418 57.15 94.6657V95.2499C57.15 96.9341 57.819 98.5492 59.0099 99.7401C60.2007 100.931 61.8159 101.6 63.5 101.6C65.1841 101.6 66.7993 100.931 67.9901 99.7401C69.181 98.5492 69.85 96.9341 69.85 95.2499V94.6657C73.643 93.9905 77.262 92.5611 80.4926 90.4621C85.0773 87.4141 88.9 82.4928 88.9 76.2C88.9 69.9135 85.0773 64.9922 80.4926 61.9378C77.262 59.8388 73.643 58.4094 69.85 57.7341V45.4088C72.3329 46.2153 74.168 47.4218 75.2031 48.6092C75.7453 49.2525 76.4099 49.7817 77.1584 50.166C77.9069 50.5502 78.7243 50.7819 79.563 50.8475C80.4018 50.9132 81.2453 50.8115 82.0444 50.5484C82.8436 50.2853 83.5825 49.8659 84.2182 49.3148C84.8539 48.7637 85.3737 48.0917 85.7475 47.3379C86.1213 46.5842 86.3415 45.7636 86.3955 44.924C86.4494 44.0844 86.336 43.2424 86.0617 42.447C85.7875 41.6516 85.3579 40.9186 84.7979 40.2907C81.2229 36.1695 75.8254 33.4581 69.85 32.3342V31.75Z" fill="#5BE9B6"/>
</svg>
