<svg width="1292" height="1100" viewBox="0 0 1292 1100" fill="none" xmlns="http://www.w3.org/2000/svg">
<circle cx="1113.83" cy="1020.83" r="64.5" transform="rotate(-14.7958 1113.83 1020.83)" fill="url(#paint0_radial_269_21)"/>
<circle cx="1113.83" cy="1020.83" r="61" transform="rotate(-14.7958 1113.83 1020.83)" stroke="black" stroke-opacity="0.1" stroke-width="7"/>
<path d="M1107.3 1040.66L1103.93 1005.44L1109.2 1004.05L1112.58 1039.26L1107.3 1040.66ZM1089.98 1036.28L1089.46 1030.77L1115.83 1023.81L1116.35 1029.31L1089.98 1036.28ZM1095.44 1043.79L1092.06 1008.58L1097.33 1007.18L1100.71 1042.4L1095.44 1043.79ZM1088.81 1024.03L1088.31 1018.53L1114.67 1011.56L1115.18 1017.07L1088.81 1024.03Z" fill="black" fill-opacity="0.3"/>
<path d="M1130.36 998.462L1139.27 1032.21L1132.14 1034.1L1125.01 1007.12L1124.81 1007.17L1118.36 1014.06L1116.69 1007.73L1123.65 1000.23L1130.36 998.462Z" fill="black" fill-opacity="0.3"/>
<path d="M1247 686.5H45C21.804 686.5 3 705.304 3 728.5V805.593C3 808.362 3.24667 811.233 4.16739 814.111C7.4338 824.323 19.1433 852.058 54.3249 873.344C89.4986 894.625 147.71 909.204 243.472 893.963C457.125 859.958 542.806 849.993 603.074 848.499C663.223 847.008 746.998 858.319 830.833 877.425C912.566 896.051 1029.76 931.584 1074.92 945.541C1087.64 949.472 1101.4 947.198 1112.17 939.379L1271.67 823.607C1282.56 815.706 1289 803.068 1289 789.617V728.5C1289 705.304 1270.2 686.5 1247 686.5Z" fill="white" stroke="#1E1E1E" stroke-width="6"/>
<path d="M6 38.4714C6 38.4714 239 -1.64106e-10 646 0C1053 1.64106e-10 1286 38.4714 1286 38.4714L1286 713.617L1082.5 861C1082.5 861 934.787 809.566 831.5 784.057C747.548 763.324 667.5 751.546 603 752.63C538.5 753.714 456.625 765.092 243 801.938C29.375 838.784 6 713.617 6 713.617L6 38.4714Z" fill="#1E1E1E"/>
<defs>
<radialGradient id="paint0_radial_269_21" cx="0" cy="0" r="1" gradientUnits="userSpaceOnUse" gradientTransform="translate(1111.24 1025.11) rotate(-60) scale(60.5 71.6371)">
<stop offset="0.427083" stop-color="#FBCD50"/>
<stop offset="1" stop-color="#FBB245"/>
</radialGradient>
</defs>
</svg>
