<svg width="1292" height="417" viewBox="0 0 1292 417" fill="none" xmlns="http://www.w3.org/2000/svg">
<circle cx="1113.83" cy="337.833" r="64.5" transform="rotate(-14.7958 1113.83 337.833)" fill="url(#paint0_radial_256_22)"/>
<circle cx="1113.83" cy="337.833" r="61" transform="rotate(-14.7958 1113.83 337.833)" stroke="black" stroke-opacity="0.1" stroke-width="7"/>
<path d="M1107.3 357.658L1103.93 322.443L1109.2 321.05L1112.58 356.265L1107.3 357.658ZM1089.98 353.277L1089.46 347.773L1115.83 340.808L1116.35 346.313L1089.98 353.277ZM1095.44 360.792L1092.06 325.578L1097.33 324.185L1100.71 359.399L1095.44 360.792ZM1088.81 341.034L1088.31 335.525L1114.67 328.561L1115.18 334.069L1088.81 341.034Z" fill="black" fill-opacity="0.3"/>
<path d="M1130.36 315.462L1139.27 349.214L1132.14 351.099L1125.01 324.121L1124.81 324.173L1118.36 331.06L1116.69 324.731L1123.65 317.234L1130.36 315.462Z" fill="black" fill-opacity="0.3"/>
<path d="M1247 3.5H45C21.804 3.5 3 22.304 3 45.5V122.593C3 125.362 3.24667 128.233 4.16739 131.111C7.4338 141.323 19.1433 169.058 54.3249 190.344C89.4986 211.625 147.71 226.204 243.472 210.963C457.125 176.958 542.806 166.993 603.074 165.499C663.223 164.008 746.998 175.319 830.833 194.425C912.566 213.051 1029.76 248.584 1074.92 262.541C1087.64 266.472 1101.4 264.198 1112.17 256.379L1271.67 140.607C1282.56 132.706 1289 120.068 1289 106.617V45.5C1289 22.304 1270.2 3.5 1247 3.5Z" fill="white" stroke="#1E1E1E" stroke-width="6"/>
<defs>
<radialGradient id="paint0_radial_256_22" cx="0" cy="0" r="1" gradientUnits="userSpaceOnUse" gradientTransform="translate(1111.24 342.108) rotate(-60) scale(60.5 71.6371)">
<stop offset="0.427083" stop-color="#FBCD50"/>
<stop offset="1" stop-color="#FBB245"/>
</radialGradient>
</defs>
</svg>
