<svg width="1280" height="1100" viewBox="0 0 1280 1100" fill="none" xmlns="http://www.w3.org/2000/svg">
<g clip-path="url(#clip0_272_28)">
<circle cx="1107.83" cy="1020.83" r="64.5" transform="rotate(-14.7958 1107.83 1020.83)" fill="url(#paint0_radial_272_28)"/>
<circle cx="1107.83" cy="1020.83" r="61" transform="rotate(-14.7958 1107.83 1020.83)" stroke="black" stroke-opacity="0.1" stroke-width="7"/>
<path d="M1101.3 1040.66L1097.93 1005.44L1103.2 1004.05L1106.58 1039.26L1101.3 1040.66ZM1083.98 1036.28L1083.46 1030.77L1109.83 1023.81L1110.35 1029.31L1083.98 1036.28ZM1089.44 1043.79L1086.06 1008.58L1091.33 1007.18L1094.71 1042.4L1089.44 1043.79ZM1082.81 1024.03L1082.31 1018.53L1108.67 1011.56L1109.18 1017.07L1082.81 1024.03Z" fill="black" fill-opacity="0.3"/>
<path d="M1124.36 998.462L1133.27 1032.21L1126.14 1034.1L1119.01 1007.12L1118.81 1007.17L1112.36 1014.06L1110.69 1007.73L1117.65 1000.23L1124.36 998.462Z" fill="black" fill-opacity="0.3"/>
<path d="M1241 686.5H39C15.804 686.5 -3 705.304 -3 728.5V805.593C-3 808.362 -2.75333 811.233 -1.83261 814.111C1.4338 824.323 13.1433 852.058 48.3249 873.344C83.4986 894.625 141.71 909.204 237.472 893.963C451.125 859.958 536.806 849.993 597.074 848.499C657.223 847.008 740.998 858.319 824.833 877.425C906.566 896.051 1023.76 931.584 1068.92 945.541C1081.64 949.472 1095.4 947.198 1106.17 939.379L1265.67 823.607C1276.56 815.706 1283 803.068 1283 789.617V728.5C1283 705.304 1264.2 686.5 1241 686.5Z" fill="white" stroke="#1E1E1E" stroke-width="6"/>
<path d="M0 38.4714C0 38.4714 233 -1.64106e-10 640 0C1047 1.64106e-10 1280 38.4714 1280 38.4714L1280 713.617L1076.5 861C1076.5 861 928.787 809.566 825.5 784.057C741.548 763.324 661.5 751.546 597 752.63C532.5 753.714 450.625 765.092 237 801.938C23.375 838.784 0 713.617 0 713.617L0 38.4714Z" fill="#1E1E1E"/>
</g>
<defs>
<radialGradient id="paint0_radial_272_28" cx="0" cy="0" r="1" gradientUnits="userSpaceOnUse" gradientTransform="translate(1105.24 1025.11) rotate(-60) scale(60.5 71.6371)">
<stop offset="0.427083" stop-color="#FBCD50"/>
<stop offset="1" stop-color="#FBB245"/>
</radialGradient>
<clipPath id="clip0_272_28">
<rect width="1280" height="1099.67" fill="white"/>
</clipPath>
</defs>
</svg>
