<svg width="390" height="588" viewBox="0 0 390 588" fill="none" xmlns="http://www.w3.org/2000/svg">
<path fill-rule="evenodd" clip-rule="evenodd" d="M-64.1812 0.907227H-63.1812H464.181H465.181V1.90723V586.093V587.093H464.181H-63.1812H-64.1812V586.093V1.90723V0.907227ZM-62.1812 393.361V488.732H23.7098V393.361H-62.1812ZM25.7098 393.361V488.732H111.609V393.361H25.7098ZM23.7098 490.732H-62.1812V585.093H23.7098V490.732ZM25.7098 585.093V490.732H111.609V585.093H25.7098ZM25.7098 391.361V296H111.609V391.361H25.7098ZM23.7098 296V391.361H-62.1812V296H23.7098ZM25.7098 294H111.609V198.639H25.7098V294ZM23.7098 198.639V294H-62.1812V198.639H23.7098ZM25.7098 196.639H111.609V101.268H25.7098V196.639ZM23.7098 101.268V196.639H-62.1812V101.268H23.7098ZM25.7098 99.2684H111.609V2.90723H25.7098V99.2684ZM23.7098 2.90723V99.2684H-62.1812V2.90723H23.7098ZM113.609 490.732V585.093H199.5V490.732H113.609ZM113.609 393.361V488.732H199.5V393.361H113.609ZM199.5 391.361H113.609V296H199.5V391.361ZM199.5 294H113.609V198.639H199.5V294ZM199.5 196.639H113.609V101.268H199.5V196.639ZM199.5 99.2684H113.609V2.90723H199.5V99.2684ZM201.5 393.361V488.732H287.391V393.361H201.5ZM201.5 585.093V490.732H287.391V585.093H201.5ZM201.5 391.361V296H287.391V391.361H201.5ZM201.5 294H287.391V198.639H201.5V294ZM201.5 196.639H287.391V101.268H201.5V196.639ZM201.5 99.2684H287.391V2.90723H201.5V99.2684ZM289.391 490.732V585.093H375.29V490.732H289.391ZM289.391 393.361V488.732H375.29V393.361H289.391ZM375.29 391.361H289.391V296H375.29V391.361ZM375.29 294H289.391V198.639H375.29V294ZM375.29 196.639H289.391V101.268H375.29V196.639ZM375.29 99.2684H289.391V2.90723H375.29V99.2684ZM377.29 393.361V488.732H463.181V393.361H377.29ZM377.29 585.093V490.732H463.181V585.093H377.29ZM377.29 391.361V296H463.181V391.361H377.29ZM377.29 294H463.181V198.639H377.29V294ZM377.29 196.639H463.181V101.268H377.29V196.639ZM377.29 99.2684H463.181V2.90723H377.29V99.2684Z" fill="black" fill-opacity="0.1"/>
</svg>
