<svg width="177" height="48" viewBox="0 0 177 48" fill="none" xmlns="http://www.w3.org/2000/svg">
<path d="M0 25.8007C0 23.3464 0.40488 21.1096 1.22112 19.084C2.03412 17.0616 3.19046 15.3001 4.68365 13.8027C6.18009 12.3053 7.97128 11.1434 10.0669 10.3139C12.1594 9.4844 14.4785 9.04014 17.0179 8.9749C19.5606 8.91277 22.2749 9.29489 25.1674 10.1213V18.1986C23.2077 17.307 21.2643 16.7975 19.3371 16.6701C17.4099 16.5428 15.664 16.7975 14.1028 17.4344C12.5416 18.0713 11.2945 19.084 10.3649 20.4696C9.43533 21.8552 8.96891 23.6322 8.96891 25.8007C8.96891 27.9691 9.43209 29.743 10.3649 31.1317C11.2945 32.5173 12.5416 33.5301 14.1028 34.167C15.664 34.8038 17.4099 35.0586 19.3371 34.9312C21.2643 34.8038 23.2077 34.2943 25.1674 33.4027V41.4801C22.2781 42.3096 19.5606 42.6917 17.0179 42.6264C14.4753 42.5612 12.1594 42.1169 10.0669 41.2875C7.97452 40.458 6.18009 39.2961 4.68365 37.7987C3.18722 36.3012 2.03412 34.5398 1.22112 32.5173C0.408119 30.4949 0 28.2549 0 25.8007Z" fill="#E95B5C"/>
<path d="M27.6614 42.0548C29.3878 36.702 31.1239 31.2839 32.8698 25.8038C34.6124 20.3236 36.3485 14.9055 38.0781 9.55273H49.9881C51.7145 14.9055 53.4506 20.3236 55.1965 25.8038C56.9391 31.2839 58.6752 36.702 60.4049 42.0548H51.6335C51.2999 41.0358 50.9857 40.0075 50.6877 38.973C50.3897 37.9384 50.0723 36.9101 49.7419 35.8911H38.3275C37.9939 36.9101 37.6797 37.9384 37.3817 38.973C37.0838 40.0075 36.7663 41.0358 36.4359 42.0548H27.6646H27.6614ZM40.5204 28.7675H47.5459C46.979 26.888 46.3992 24.9898 45.8033 23.0792C45.204 21.1686 44.6242 19.2704 44.0574 17.3909C43.4906 19.2704 42.9011 21.1686 42.2889 23.0792C41.6735 24.9898 41.084 26.888 40.5204 28.7675Z" fill="#E95B5C"/>
<path d="M63.6439 42.0547V9.54956H72.4152C74.1773 12.5786 75.962 15.6355 77.7726 18.7267C79.5832 21.8178 81.368 24.8779 83.13 27.9038V9.54956H91.7037V42.0547H82.9324C81.1704 39.0288 79.3857 35.9687 77.575 32.8776C75.7644 29.7865 73.9797 26.7264 72.2177 23.7005V42.0547H63.6472H63.6439Z" fill="#E95B5C"/>
<path d="M173.354 46.9198H105.139C103.442 46.9198 102.065 45.5995 102.065 43.9716V8.89407C102.065 7.26617 103.442 5.94583 105.139 5.94583H109.036L110.38 2.33276C110.678 1.53435 111.465 1 112.349 1H126.31C127.074 1 127.777 1.40076 128.146 2.04384L130.009 5.94583H173.354C175.051 5.94583 176.427 7.26617 176.427 8.89407V43.9716C176.427 45.5995 175.051 46.9198 173.354 46.9198Z" fill="#E95B5C" stroke="#E95B5C" stroke-width="0.68" stroke-miterlimit="10"/>
<path d="M121.487 37.0095C128.363 37.0095 133.938 31.6629 133.938 25.0674C133.938 18.472 128.363 13.1254 121.487 13.1254C114.61 13.1254 109.036 18.472 109.036 25.0674C109.036 31.6629 114.61 37.0095 121.487 37.0095Z" fill="white"/>
<path d="M121.94 42.819C119.517 42.819 117.279 42.3965 115.222 41.5546C113.166 40.7127 111.391 39.5259 109.897 38.0005C108.404 36.472 107.241 34.6671 106.415 32.5825C105.586 30.4979 105.172 28.2331 105.172 25.782C105.172 23.3308 105.586 21.0722 106.415 19.0063C107.245 16.9373 108.407 15.1478 109.897 13.638C111.391 12.1281 113.166 10.9507 115.222 10.1057C117.279 9.26376 119.517 8.84125 121.94 8.84125C124.363 8.84125 126.591 9.26376 128.632 10.1057C130.673 10.9476 132.448 12.125 133.957 13.638C135.466 15.1509 136.636 16.9404 137.465 19.0063C138.294 21.0753 138.709 23.3339 138.709 25.782C138.709 28.23 138.294 30.4979 137.465 32.5825C136.636 34.6671 135.466 36.472 133.957 38.0005C132.448 39.529 130.673 40.7127 128.632 41.5546C126.591 42.3965 124.36 42.819 121.94 42.819ZM121.94 35.0865C123.566 35.0865 124.959 34.6981 126.119 33.9184C127.278 33.1386 128.185 32.0481 128.83 30.6501C129.477 29.249 129.801 27.6273 129.801 25.782C129.801 23.9366 129.477 22.3304 128.83 20.9604C128.182 19.5935 127.278 18.5185 126.119 17.7388C124.956 16.959 123.563 16.5707 121.94 16.5707C120.317 16.5707 118.964 16.9528 117.785 17.717C116.606 18.4813 115.695 19.5531 115.048 20.9386C114.4 22.3242 114.076 23.9366 114.076 25.782C114.076 27.6273 114.4 29.249 115.048 30.6501C115.695 32.0512 116.606 33.1386 117.785 33.9184C118.96 34.6981 120.347 35.0865 121.94 35.0865Z" fill="white"/>
<path d="M143.486 42.0548V9.60242H152.245C154.003 12.6252 155.785 15.6791 157.592 18.7671C159.4 21.8552 161.181 24.909 162.94 27.9318V9.60242H171.497V42.0548H162.739C160.98 39.032 159.199 35.9781 157.391 32.8901C155.584 29.8051 153.799 26.7513 152.044 23.7254V42.0517H143.486V42.0548Z" fill="white"/>
<path d="M128.739 31.1286C129.682 32.5514 130.125 33.3095 130.125 34.0986C130.125 35.655 128.92 36.4099 127.294 36.4099C126.579 36.4099 126.115 36.4099 124.946 35.8259C124.946 35.8259 124.188 35.161 122.416 35.2294C120.628 35.161 119.871 35.8352 119.871 35.8352C118.701 36.4193 118.257 36.413 117.542 36.413C115.916 36.413 114.711 35.6581 114.711 34.1017C114.711 33.3126 115.158 32.5577 116.1 31.1317C116.1 31.1317 117.882 28.2953 119.427 26.9594C120.541 25.9964 122.17 25.9995 122.17 25.9995H122.672C122.672 25.9995 124.37 25.9964 125.416 26.9594C126.912 28.3419 128.739 31.1317 128.739 31.1317V31.1286ZM118.452 24.0982C120.149 24.0982 121.526 22.0415 121.526 19.5003C121.526 16.959 120.149 14.9024 118.452 14.9024C116.755 14.9024 115.378 16.959 115.378 19.5003C115.378 22.0415 116.755 24.0982 118.452 24.0982ZM115.504 28.55C116.758 27.997 117.043 26.0305 116.142 24.1603C115.242 22.2901 113.496 21.2214 112.246 21.7775C110.992 22.3305 110.707 24.297 111.608 26.1672C112.508 28.0374 114.254 29.1061 115.504 28.55ZM125.6 24.0982C127.298 24.0982 128.677 22.0415 128.677 19.5003C128.677 16.959 127.301 14.9024 125.6 14.9024C123.9 14.9024 122.527 16.959 122.527 19.5003C122.527 22.0384 123.903 24.0982 125.6 24.0982ZM131.806 21.7744C130.553 21.2214 128.81 22.287 127.91 24.1572C127.009 26.0274 127.294 27.9939 128.548 28.5469C129.801 29.0999 131.544 28.0343 132.444 26.1641C133.345 24.2939 133.06 22.3274 131.806 21.7744Z" fill="#E95B5C"/>
</svg>
